<svg width="180" height="180" viewBox="0 0 180 180" fill="none" xmlns="http://www.w3.org/2000/svg">
  <rect width="180" height="180" fill="#10b981"/>
  <rect x="15" y="15" width="150" height="150" rx="22" fill="white"/>
  <path d="M90 45C67.5 45 45 67.5 45 90s22.5 45 45 45 45-22.5 45-45S112.5 45 90 45zm0 75c-16.5 0-30-13.5-30-30s13.5-30 30-30 30 13.5 30 30-13.5 30-30 30z" fill="#10b981"/>
  <path d="M90 60c-16.5 0-30 13.5-30 30s13.5 30 30 30 30-13.5 30-30-13.5-30-30-30zm0 45c-8.25 0-15-6.75-15-15s6.75-15 15-15 15 6.75 15 15-6.75 15-15 15z" fill="#10b981"/>
</svg>
