<svg width="192" height="192" viewBox="0 0 192 192" fill="none" xmlns="http://www.w3.org/2000/svg">
  <rect width="192" height="192" fill="#10b981"/>
  <rect x="16" y="16" width="160" height="160" rx="24" fill="white"/>
  <path d="M96 48C70.4 48 48 70.4 48 96s22.4 48 48 48 48-22.4 48-48S121.6 48 96 48zm0 80c-17.6 0-32-14.4-32-32s14.4-32 32-32 32 14.4 32 32-14.4 32-32 32z" fill="#10b981"/>
  <path d="M96 64c-17.6 0-32 14.4-32 32s14.4 32 32 32 32-14.4 32-32-14.4-32-32-32zm0 48c-8.8 0-16-7.2-16-16s7.2-16 16-16 16 7.2 16 16-7.2 16-16 16z" fill="#10b981"/>
</svg>
