<svg width="512" height="512" viewBox="0 0 512 512" fill="none" xmlns="http://www.w3.org/2000/svg">
  <rect width="512" height="512" fill="#10b981"/>
  <rect x="32" y="32" width="448" height="448" rx="64" fill="white"/>
  <path d="M256 128C179.2 128 128 179.2 128 256s51.2 128 128 128 128-51.2 128-128S332.8 128 256 128zm0 192c-35.2 0-64-28.8-64-64s28.8-64 64-64 64 28.8 64 64-28.8 64-64 64z" fill="#10b981"/>
  <path d="M256 160c-35.2 0-64 28.8-64 64s28.8 64 64 64 64-28.8 64-64-28.8-64-64-64zm0 96c-17.6 0-32-14.4-32-32s14.4-32 32-32 32 14.4 32 32-14.4 32-32 32z" fill="#10b981"/>
</svg>
